<svg width="24" height="24" viewBox="0 0 24 24" fill="none" xmlns="http://www.w3.org/2000/svg">
<g id="write 1">
<g id="Group">
<path id="Vector" d="M6.62012 17.4764C6.78013 17.4764 6.81213 17.4604 6.95613 17.4284L9.83621 16.8524C10.1402 16.7724 10.4442 16.6284 10.6842 16.3884L17.6604 9.41216C18.7325 8.34013 18.7325 6.50007 17.6604 5.42804L17.0684 4.80402C15.9964 3.73199 14.1403 3.73199 13.0683 4.80402L6.09211 11.7962C5.8681 12.0202 5.7081 12.3402 5.62809 12.6442L5.02008 15.5563C4.94007 16.1003 5.10008 16.6284 5.48409 17.0124C5.7881 17.3164 6.23611 17.4764 6.62012 17.4764ZM7.16414 12.9483L14.1403 5.95606C14.6044 5.49204 15.4524 5.49204 15.9004 5.95606L16.5084 6.56407C17.0524 7.10809 17.0524 7.87611 16.5084 8.40413L9.54821 15.3963L6.58812 15.8923L7.16414 12.9483Z" fill="white"/>
<path id="Vector_2" d="M17.5998 18.4609H5.79146C5.32745 18.4609 5.02344 18.7649 5.02344 19.229C5.02344 19.693 5.40745 19.997 5.79146 19.997H17.5358C17.9998 19.997 18.3838 19.693 18.3838 19.229C18.3678 18.7649 17.9838 18.4609 17.5998 18.4609Z" fill="white"/>
</g>
</g>
</svg>
