<svg width="18" height="18" viewBox="0 0 18 18" fill="none" xmlns="http://www.w3.org/2000/svg">
<g id="fi_3372540" clip-path="url(#clip0_3425_2787)">
<g id="Group">
<path id="Vector" d="M6.70156 10.6953C6.70156 10.4041 6.46545 10.168 6.17422 10.168H2.78516C2.49392 10.168 2.25781 10.4041 2.25781 10.6953V15.8914H6.70156V10.6953Z" fill="#FE9E00"/>
<path id="Vector_2" d="M17.4711 5.08203H14.082C13.7908 5.08203 13.5547 5.31814 13.5547 5.60938V15.8891H17.4711C17.656 15.8891 17.8334 15.9212 17.9984 15.9798V5.60938C17.9984 5.31814 17.7623 5.08203 17.4711 5.08203Z" fill="#FE9E00"/>
<path id="Vector_3" d="M12.35 0.527344C12.35 0.236109 12.1139 0 11.8227 0H8.43359C8.14236 0 7.90625 0.236109 7.90625 0.527344V15.8906H12.35V0.527344Z" fill="#FE9E00"/>
<path id="Vector_4" d="M17.4727 16.9453H1.05469V0.527344C1.05469 0.236109 0.818578 0 0.527344 0C0.236109 0 0 0.236109 0 0.527344V17.4727C0 17.7639 0.236109 18 0.527344 18H17.4727C17.7639 18 18 17.7639 18 17.4727C18 17.1814 17.7639 16.9453 17.4727 16.9453Z" fill="#FE9E00"/>
</g>
</g>
<defs>
<clipPath id="clip0_3425_2787">
<rect width="18" height="18" fill="white"/>
</clipPath>
</defs>
</svg>
