<svg width="314" height="122" viewBox="0 0 314 122" fill="none" xmlns="http://www.w3.org/2000/svg">
<g clip-path="url(#clip0_3902_4345)">
<rect width="314" height="122" rx="10" fill="white"/>
<path d="M229.694 54.5312L215.598 77.6994L219.808 77.829L207.862 96.2417H214.136L204.352 112.599H259.048L247.002 96.2417L252.774 96.0373L241.234 77.6365L245.497 77.4321L229.694 54.5312Z" fill="#EBEBEB"/>
<path d="M232.075 81.4102C232.143 81.4102 232.022 91.2237 231.805 103.325C231.588 115.429 231.357 125.239 231.284 125.235C231.217 125.235 231.337 115.425 231.554 103.321C231.771 91.2198 232.003 81.4102 232.075 81.4102Z" fill="#E0E0E0"/>
<path d="M238.78 86.8052C238.809 86.8209 238.462 87.2336 237.864 87.8742C237.266 88.5187 236.417 89.3873 235.463 90.3384C234.527 91.2619 233.678 92.0991 233.003 92.7633C232.371 93.3803 231.976 93.7615 231.947 93.7419C231.918 93.7261 232.265 93.3135 232.863 92.6729C233.461 92.0283 234.31 91.1598 235.265 90.2087C236.2 89.2851 237.049 88.4519 237.724 87.7838C238.356 87.1668 238.752 86.7855 238.78 86.8012V86.8052Z" fill="#E0E0E0"/>
<path d="M231.941 93.7553C231.898 93.7986 230.514 92.9811 228.855 91.9239C227.191 90.8667 225.88 89.9746 225.923 89.9313C225.966 89.8881 227.35 90.7056 229.009 91.7628C230.673 92.82 231.985 93.7121 231.941 93.7553Z" fill="#E0E0E0"/>
<path d="M231.567 105.116C231.543 105.135 231.157 104.876 230.54 104.448C229.923 104.019 229.069 103.43 228.109 102.793C227.15 102.156 226.267 101.594 225.631 101.189C224.994 100.785 224.599 100.529 224.618 100.506C224.637 100.482 225.066 100.698 225.737 101.076C226.402 101.453 227.309 101.999 228.268 102.64C229.228 103.28 230.067 103.889 230.656 104.345C231.244 104.801 231.586 105.104 231.567 105.124V105.116Z" fill="#E0E0E0"/>
<path d="M239.365 98.0942C239.365 98.0942 239.288 98.2121 239.114 98.4086C238.941 98.6012 238.675 98.8724 238.333 99.2025C237.658 99.8627 236.669 100.735 235.56 101.678C234.451 102.622 233.443 103.475 232.739 104.107C232.03 104.736 231.606 105.137 231.572 105.121C231.557 105.113 231.649 105.003 231.823 104.807C231.996 104.614 232.261 104.343 232.604 104.013C233.279 103.353 234.268 102.48 235.377 101.537C236.486 100.594 237.489 99.7409 238.198 99.1082C238.907 98.4793 239.331 98.0785 239.365 98.0942Z" fill="#E0E0E0"/>
<path d="M274.778 81.3555L266.03 95.7358L268.639 95.8144L261.227 107.243H265.123L259.047 117.395H292.992L285.522 107.243L289.101 107.114L281.939 95.6926L284.587 95.5668L274.778 81.3555Z" fill="#455A64"/>
<path d="M276.256 98.0312C276.323 98.0312 276.27 104.123 276.135 111.633C276 119.144 275.836 125.232 275.764 125.232C275.696 125.232 275.749 119.144 275.884 111.629C276.019 104.119 276.183 98.0312 276.256 98.0312Z" fill="#263238"/>
<path d="M280.415 101.734C280.44 101.75 280.251 101.998 279.89 102.367C279.528 102.737 278.988 103.212 278.366 103.715C277.744 104.218 277.189 104.674 276.799 105.016C276.408 105.354 276.172 105.57 276.143 105.554C276.119 105.539 276.307 105.291 276.668 104.922C277.03 104.552 277.57 104.077 278.192 103.574C278.814 103.071 279.369 102.615 279.76 102.277C280.15 101.939 280.386 101.723 280.415 101.738V101.734Z" fill="#263238"/>
<path d="M276.173 105.685C276.13 105.729 275.257 105.234 274.225 104.581C273.193 103.925 272.392 103.359 272.431 103.312C272.47 103.265 273.342 103.764 274.379 104.42C275.411 105.076 276.212 105.642 276.168 105.689L276.173 105.685Z" fill="#263238"/>
<path d="M275.938 112.746C275.889 112.79 274.949 112.121 273.763 111.335C272.576 110.545 271.583 109.932 271.626 109.885C271.665 109.842 272.726 110.384 273.922 111.178C275.118 111.972 275.986 112.711 275.938 112.75V112.746Z" fill="#263238"/>
<path d="M280.777 108.391C280.84 108.43 279.847 109.479 278.448 110.643C277.797 111.197 277.209 111.7 276.688 112.144C276.239 112.529 275.969 112.773 275.94 112.753C275.878 112.714 276.871 111.664 278.27 110.501C278.921 109.947 279.509 109.444 280.03 109.004C280.478 108.619 280.748 108.375 280.777 108.395V108.391Z" fill="#263238"/>
<path d="M18.8047 53V35.7051H22.0918L26.9688 44.7285L28.8379 48.209H28.9453C28.7161 46.5332 28.6016 44.8574 28.6016 43.1816V35.7051H31.8027V53H28.5156L23.6602 44.2129L21.748 40.582H21.6621C21.8913 42.1719 22.0059 43.8477 22.0059 45.6094V53H18.8047ZM37.6946 46.6836C37.6946 48.1159 37.9667 49.1543 38.511 49.7988C39.0696 50.4434 39.707 50.7656 40.4231 50.7656C41.1249 50.7656 41.7552 50.4434 42.3137 49.7988C42.8867 49.14 43.1731 48.1016 43.1731 46.6836C43.1731 45.2513 42.8938 44.2129 42.3352 43.5684C41.7766 42.9095 41.1393 42.5801 40.4231 42.5801C39.707 42.5801 39.0696 42.9023 38.511 43.5469C37.9667 44.1914 37.6946 45.237 37.6946 46.6836ZM34.5364 46.6836C34.5364 44.8073 35.0305 43.2174 36.0188 41.9141C37.0071 40.6107 38.4752 39.959 40.4231 39.959C41.7408 39.959 42.858 40.2884 43.7747 40.9473C44.6914 41.6061 45.343 42.4297 45.7298 43.418C46.1165 44.3919 46.3098 45.4805 46.3098 46.6836C46.3098 47.2565 46.2597 47.8294 46.1595 48.4023C46.0592 48.9609 45.8658 49.5482 45.5794 50.1641C45.3072 50.7799 44.9563 51.3242 44.5266 51.7969C44.1113 52.2552 43.5455 52.6348 42.8294 52.9355C42.1276 53.2363 41.3255 53.3867 40.4231 53.3867C39.5351 53.3867 38.7402 53.2435 38.0384 52.957C37.3365 52.6706 36.7708 52.3053 36.3411 51.8613C35.9114 51.403 35.5533 50.873 35.2669 50.2715C34.9947 49.6556 34.8014 49.0612 34.6868 48.4883C34.5865 47.901 34.5364 47.2995 34.5364 46.6836ZM17.5156 70.9453V68.3457H19.3848V67.1211C19.3848 65.8177 19.7142 64.8294 20.373 64.1562C21.0319 63.4831 21.9629 63.1465 23.166 63.1465H25.293V65.7676H23.6172C23.2161 65.7676 22.9225 65.8893 22.7363 66.1328C22.5645 66.3763 22.4785 66.7773 22.4785 67.3359V68.3457H24.9922V70.9453H22.4785V81H19.3848V70.9453H17.5156ZM29.3587 74.6836C29.3587 76.1159 29.6308 77.1543 30.1751 77.7988C30.7337 78.4434 31.371 78.7656 32.0872 78.7656C32.789 78.7656 33.4192 78.4434 33.9778 77.7988C34.5507 77.14 34.8372 76.1016 34.8372 74.6836C34.8372 73.2513 34.5579 72.2129 33.9993 71.5684C33.4407 70.9095 32.8033 70.5801 32.0872 70.5801C31.371 70.5801 30.7337 70.9023 30.1751 71.5469C29.6308 72.1914 29.3587 73.237 29.3587 74.6836ZM26.2005 74.6836C26.2005 72.8073 26.6946 71.2174 27.6829 69.9141C28.6712 68.6107 30.1393 67.959 32.0872 67.959C33.4049 67.959 34.5221 68.2884 35.4388 68.9473C36.3554 69.6061 37.0071 70.4297 37.3938 71.418C37.7805 72.3919 37.9739 73.4805 37.9739 74.6836C37.9739 75.2565 37.9238 75.8294 37.8235 76.4023C37.7233 76.9609 37.5299 77.5482 37.2434 78.1641C36.9713 78.7799 36.6204 79.3242 36.1907 79.7969C35.7753 80.2552 35.2096 80.6348 34.4934 80.9355C33.7916 81.2363 32.9895 81.3867 32.0872 81.3867C31.1992 81.3867 30.4042 81.2435 29.7024 80.957C29.0006 80.6706 28.4348 80.3053 28.0052 79.8613C27.5755 79.403 27.2174 78.873 26.9309 78.2715C26.6588 77.6556 26.4654 77.0612 26.3509 76.4883C26.2506 75.901 26.2005 75.2995 26.2005 74.6836ZM40.149 76.3594V68.3457H43.2427V76.0156C43.2427 77.849 43.8658 78.7656 45.1119 78.7656C45.871 78.7656 46.4654 78.4362 46.8951 77.7773C47.3248 77.1042 47.5396 76.3092 47.5396 75.3926V68.3457H50.5904V81H47.647V79.6895H47.6041C47.3749 80.1335 46.981 80.5273 46.4224 80.8711C45.8782 81.2148 45.2193 81.3867 44.4459 81.3867C43.9589 81.3867 43.4862 81.3151 43.0279 81.1719C42.5839 81.0286 42.1327 80.7923 41.6744 80.4629C41.216 80.1191 40.8436 79.5964 40.5572 78.8945C40.2851 78.1927 40.149 77.3477 40.149 76.3594ZM53.6463 81V68.3457H56.6112V69.7422C56.826 69.3125 57.2127 68.9115 57.7713 68.5391C58.3442 68.1523 59.0819 67.959 59.9842 67.959C62.7485 67.959 64.1307 69.599 64.1307 72.8789V81H61.0799V73.2441C61.0799 72.2702 60.9295 71.5827 60.6287 71.1816C60.328 70.7806 59.884 70.5801 59.2967 70.5801C58.5519 70.5801 57.936 70.8809 57.4491 71.4824C56.9621 72.084 56.7186 72.8359 56.7186 73.7383V81H53.6463ZM66.3273 74.6621C66.3273 72.571 66.8286 70.931 67.8312 69.7422C68.8481 68.5534 70.1515 67.959 71.7413 67.959C72.4145 67.959 73.0089 68.1165 73.5245 68.4316C74.0545 68.7324 74.4627 69.0905 74.7491 69.5059V63.1465H77.8214V81H74.8351V79.5605C74.5629 80.0618 74.1404 80.4915 73.5675 80.8496C73.0089 81.2077 72.393 81.3867 71.7198 81.3867C71.0467 81.3867 70.4021 81.2578 69.7863 81C69.1704 80.7565 68.5974 80.3841 68.0675 79.8828C67.5376 79.3672 67.115 78.6654 66.7999 77.7773C66.4848 76.875 66.3273 75.8366 66.3273 74.6621ZM69.4855 74.6621C69.4855 75.9798 69.7218 76.9967 70.1945 77.7129C70.6814 78.4147 71.3403 78.7656 72.171 78.7656C72.9588 78.7656 73.589 78.4004 74.0616 77.6699C74.5486 76.9395 74.7921 75.9368 74.7921 74.6621C74.7921 73.4447 74.5629 72.4635 74.1046 71.7188C73.6463 70.9596 73.0017 70.5801 72.171 70.5801C71.2973 70.5801 70.6313 70.9525 70.173 71.6973C69.7146 72.4421 69.4855 73.4303 69.4855 74.6621Z" fill="#2C2C2C"/>
<path d="M54.6346 53V35.7051H57.8358V53H54.6346ZM61.2355 53V40.3457H64.2003V41.6777C64.4295 41.291 64.8162 40.9115 65.3605 40.5391C65.9191 40.1523 66.5779 39.959 67.337 39.959C68.6977 39.959 69.7075 40.6465 70.3663 42.0215C70.5239 41.7493 70.7172 41.4844 70.9464 41.2266C71.1899 40.9544 71.5981 40.6751 72.171 40.3887C72.7583 40.1022 73.4028 39.959 74.1046 39.959C76.74 39.959 78.0577 41.599 78.0577 44.8789V53H74.964V44.9434C74.964 44.1556 74.8494 43.5684 74.6202 43.1816C74.3911 42.7806 73.9972 42.5801 73.4386 42.5801C72.7511 42.5801 72.1925 42.8737 71.7628 43.4609C71.3474 44.0339 71.1398 44.7285 71.1398 45.5449V53H68.1105V44.8574C68.1105 43.3392 67.602 42.5801 66.5851 42.5801C65.8403 42.5801 65.2745 42.8522 64.8878 43.3965C64.5011 43.9264 64.3077 44.6354 64.3077 45.5234V53H61.2355ZM83.3266 49.3477C83.3266 49.763 83.4841 50.1139 83.7992 50.4004C84.1286 50.6868 84.5655 50.8301 85.1098 50.8301C85.9262 50.8301 86.6208 50.5579 87.1937 50.0137C87.7667 49.4694 88.0531 48.7533 88.0531 47.8652V46.877C87.4802 47.0202 86.7497 47.1562 85.8617 47.2852C84.1716 47.5573 83.3266 48.2448 83.3266 49.3477ZM80.1898 49.6055C80.1898 48.4453 80.6267 47.4928 81.5004 46.748C82.3884 46.0033 83.7061 45.502 85.4535 45.2441C86.8285 45.015 87.6951 44.8503 88.0531 44.75V44.084C88.0531 43.5254 87.8526 43.1029 87.4516 42.8164C87.0505 42.5156 86.5206 42.3652 85.8617 42.3652C84.544 42.3652 83.3839 42.9095 82.3812 43.998L80.5336 42.4082C81.9086 40.7754 83.6775 39.959 85.8402 39.959C87.7452 39.959 89.0987 40.4173 89.9008 41.334C90.7172 42.2363 91.1254 43.5254 91.1254 45.2012V53H88.1391V51.5605C87.8669 52.0618 87.4158 52.4915 86.7855 52.8496C86.1697 53.2077 85.4607 53.3867 84.6586 53.3867C83.2836 53.3867 82.1951 53.0358 81.393 52.334C80.5909 51.6322 80.1898 50.7227 80.1898 49.6055ZM96.5016 46.4258C96.5016 47.6432 96.7308 48.5885 97.1891 49.2617C97.6618 49.9206 98.2777 50.25 99.0368 50.25C99.7959 50.25 100.397 49.9206 100.841 49.2617C101.285 48.6029 101.507 47.6504 101.507 46.4043C101.507 45.1725 101.278 44.2272 100.82 43.5684C100.376 42.9095 99.7887 42.5801 99.0583 42.5801C98.2705 42.5801 97.6475 42.9238 97.1891 43.6113C96.7308 44.2845 96.5016 45.2227 96.5016 46.4258ZM93.3649 46.4473C93.3649 44.4707 93.8591 42.8952 94.8473 41.7207C95.8499 40.5462 97.1175 39.959 98.6501 39.959C99.3662 39.959 99.9678 40.1309 100.455 40.4746C100.956 40.8184 101.314 41.1979 101.529 41.6133V40.3457H104.601V51.1738C104.601 53.5658 104.121 55.3275 103.162 56.459C102.216 57.5905 100.77 58.1562 98.822 58.1562C96.6449 58.1562 94.9691 57.3255 93.7946 55.6641L95.8141 54.2461C96.6162 55.2201 97.6332 55.707 98.8649 55.707C99.5811 55.707 100.183 55.4349 100.67 54.8906C101.171 54.3464 101.45 53.6445 101.507 52.7852C101.536 52.3268 101.55 51.8828 101.55 51.4531C101.278 51.8685 100.877 52.2122 100.347 52.4844C99.8174 52.7422 99.2803 52.8711 98.736 52.8711C97.1318 52.8711 95.8356 52.291 94.8473 51.1309C93.8591 49.9564 93.3649 48.3952 93.3649 46.4473ZM106.884 46.6191C106.884 44.571 107.442 42.9525 108.56 41.7637C109.691 40.5605 111.109 39.959 112.813 39.959C114.475 39.959 115.857 40.5677 116.96 41.7852C118.077 43.0026 118.636 44.5924 118.636 46.5547C118.636 47.0846 118.621 47.4785 118.593 47.7363H109.999C109.999 48.61 110.264 49.362 110.794 49.9922C111.338 50.6224 112.076 50.9375 113.007 50.9375C113.666 50.9375 114.246 50.7728 114.747 50.4434C115.263 50.0996 115.649 49.6699 115.907 49.1543L118.464 50.0566C118.063 51.002 117.382 51.7969 116.423 52.4414C115.478 53.0716 114.31 53.3867 112.921 53.3867C111.145 53.3867 109.691 52.778 108.56 51.5605C107.442 50.3288 106.884 48.6816 106.884 46.6191ZM110.02 45.6094H115.52C115.52 44.7214 115.277 43.9622 114.79 43.332C114.317 42.7018 113.658 42.3867 112.813 42.3867C111.954 42.3867 111.274 42.709 110.772 43.3535C110.285 43.9837 110.035 44.7357 110.02 45.6094Z" fill="#FF9F00"/>
</g>
<defs>
<clipPath id="clip0_3902_4345">
<rect width="314" height="122" rx="10" fill="white"/>
</clipPath>
</defs>
</svg>
