<svg width="24" height="24" viewBox="0 0 24 24" fill="none" xmlns="http://www.w3.org/2000/svg">
<g clip-path="url(#clip0_3425_2416)">
<path d="M14.3438 18.918V20.2422C14.3438 21.2148 13.5586 22 12.5859 22H11.4141C10.4414 22 9.65625 21.2148 9.65625 20.2422V18.918C9.65625 18.5898 9.91402 18.293 10.2422 18.293H13.7578C14.086 18.293 14.3438 18.5898 14.3438 18.918Z" fill="#FEA832"/>
<path d="M14.3438 18.918V20.2422C14.3438 21.2148 13.5586 22 12.5859 22H12V18.293H13.7578C14.086 18.293 14.3438 18.5898 14.3438 18.918Z" fill="#FE9923"/>
<path d="M11.9972 6.72656C11.5753 6.72656 11.1535 6.7734 10.7315 6.87891C8.85657 7.3125 7.34489 8.80074 6.88782 10.6641C6.43079 12.539 6.95813 14.4375 8.30575 15.7617C8.78626 16.2422 9.06751 16.957 9.06751 17.7305V17.8594C9.06751 18.832 9.85263 19.6562 10.8253 19.6562H13.1691C14.1418 19.6562 14.9269 18.832 14.9269 17.8594V17.7305C14.9269 16.9687 15.2199 16.2304 15.7355 15.7265C16.7199 14.7304 17.2706 13.4062 17.2706 12C17.2706 9.04684 14.88 6.72656 11.9972 6.72656Z" fill="#FEDB41"/>
<path d="M17.2734 12C17.2734 13.4062 16.7227 14.7304 15.7383 15.7266C15.2227 16.2305 14.9297 16.9688 14.9297 17.7305V17.8594C14.9297 18.832 14.1446 19.6562 13.1719 19.6562H12V6.72656C14.8829 6.72656 17.2734 9.04684 17.2734 12Z" fill="#FFCC33"/>
<path d="M6.61001 7.44247L4.9529 5.78536C4.72403 5.55649 4.72403 5.18567 4.9529 4.95681C5.18177 4.72794 5.55259 4.72794 5.78146 4.95681L7.43856 6.61392C7.66743 6.84278 7.66743 7.2136 7.43856 7.44247C7.2097 7.67138 6.83892 7.67138 6.61001 7.44247Z" fill="#FEA832"/>
<path d="M4.96875 12.5859H2.58594C2.26207 12.5859 2 12.3239 2 12C2 11.6761 2.26207 11.4141 2.58594 11.4141H4.96875C5.29262 11.4141 5.55469 11.6761 5.55469 12C5.55469 12.3239 5.29262 12.5859 4.96875 12.5859Z" fill="#FEA832"/>
<path d="M21.4141 12.5859H19.0312C18.7074 12.5859 18.4453 12.3239 18.4453 12C18.4453 11.6761 18.7074 11.4141 19.0312 11.4141H21.4141C21.7379 11.4141 22 11.6761 22 12C22 12.3239 21.7379 12.5859 21.4141 12.5859Z" fill="#FE9923"/>
<path d="M16.5545 7.44247C16.3256 7.2136 16.3256 6.84278 16.5545 6.61392L18.2116 4.95681C18.4404 4.72794 18.8113 4.72794 19.0401 4.95681C19.269 5.18567 19.269 5.55649 19.0401 5.78536L17.383 7.44247C17.1541 7.67138 16.7833 7.67138 16.5545 7.44247Z" fill="#FE9923"/>
<path d="M12.5859 2.58594V4.96875C12.5859 5.29684 12.3282 5.55469 12 5.55469C11.6718 5.55469 11.4141 5.29684 11.4141 4.96875V2.58594C11.4141 2.25777 11.6718 2 12 2C12.3282 2 12.5859 2.25777 12.5859 2.58594Z" fill="#FEA832"/>
<path d="M12.5859 2.58594V4.96875C12.5859 5.29684 12.3282 5.55469 12 5.55469V2C12.3282 2 12.5859 2.25777 12.5859 2.58594Z" fill="#FE9923"/>
</g>
<defs>
<clipPath id="clip0_3425_2416">
<rect width="20" height="20" fill="white" transform="translate(2 2)"/>
</clipPath>
</defs>
</svg>
